# xmcd
#
# Track frame offsets: 
#        150
#        18024
#        33236
#        47660
#        65489
#
# Disc length: 1261 seconds
#
# Revision: 0
# Processed by: cddbd v1.5.2PL0 Copyright (c) Steve Scherf et al.
# Submitted via: ExactAudioCopy v0.99pb5
#
DISCID=3304eb05
DTITLE=The Famous Blue Louis - Live
DYEAR=1999
DGENRE=Blues
TTITLE0=every day I have the blues
TTITLE1=cash and carried
TTITLE2=keep on trying
TTITLE3=before it breaks
TTITLE4=drinking alone
EXTD=
EXTT0=
EXTT1=
EXTT2=
EXTT3=
EXTT4=
PLAYORDER=
